<svg xmlns="http://www.w3.org/2000/svg" xmlns:xlink="http://www.w3.org/1999/xlink" width="1080" zoomAndPan="magnify" viewBox="0 0 810 1439.999935" height="1920" preserveAspectRatio="xMidYMid meet" version="1.2"><defs><clipPath id="9984cf6e08"><path d="M 186.75 688 L 331 688 L 331 780 L 186.75 780 Z M 186.75 688 "/></clipPath><clipPath id="7b7f809cca"><path d="M 479 688 L 623.25 688 L 623.25 780 L 479 780 Z M 479 688 "/></clipPath><clipPath id="f5555394d7"><path d="M 341 524.667969 L 469 524.667969 L 469 608 L 341 608 Z M 341 524.667969 "/></clipPath><clipPath id="64e998638f"><path d="M 341 832 L 469 832 L 469 915.417969 L 341 915.417969 Z M 341 832 "/></clipPath></defs><g id="72126c7c57"><g clip-rule="nonzero" clip-path="url(#9984cf6e08)"><path style=" stroke:none;fill-rule:evenodd;fill:#ffffff;fill-opacity:1;" d="M 258.523438 779.300781 C 257.605469 779.300781 256.683594 779.054688 255.875 778.558594 L 189.269531 738.1875 C 187.734375 737.257812 186.804688 735.605469 186.804688 733.816406 C 186.804688 732.023438 187.734375 730.371094 189.269531 729.441406 L 255.875 689.070312 C 257.503906 688.082031 259.546875 688.082031 261.175781 689.070312 L 327.78125 729.441406 C 329.316406 730.371094 330.246094 732.023438 330.246094 733.816406 C 330.246094 735.605469 329.316406 737.257812 327.78125 738.1875 L 261.175781 778.558594 C 260.359375 779.054688 259.445312 779.300781 258.523438 779.300781 Z M 201.785156 733.816406 L 258.523438 768.207031 L 315.265625 733.816406 L 258.523438 699.421875 Z M 201.785156 733.816406 "/></g><g clip-rule="nonzero" clip-path="url(#7b7f809cca)"><path style=" stroke:none;fill-rule:evenodd;fill:#ffffff;fill-opacity:1;" d="M 551.558594 779.300781 C 550.640625 779.300781 549.726562 779.054688 548.910156 778.558594 L 482.304688 738.1875 C 480.769531 737.257812 479.839844 735.605469 479.839844 733.816406 C 479.839844 732.023438 480.769531 730.371094 482.304688 729.441406 L 548.910156 689.070312 C 550.535156 688.082031 552.582031 688.082031 554.210938 689.070312 L 620.816406 729.441406 C 622.351562 730.371094 623.28125 732.023438 623.28125 733.816406 C 623.28125 735.605469 622.351562 737.257812 620.816406 738.1875 L 554.210938 778.558594 C 553.394531 779.054688 552.480469 779.300781 551.558594 779.300781 Z M 494.820312 733.816406 L 551.558594 768.207031 L 608.300781 733.816406 L 551.558594 699.421875 Z M 494.820312 733.816406 "/></g><g clip-rule="nonzero" clip-path="url(#f5555394d7)"><path style=" stroke:none;fill-rule:evenodd;fill:#ffffff;fill-opacity:1;" d="M 457.808594 607.1875 L 352.277344 607.1875 C 346.265625 607.1875 341.378906 602.292969 341.378906 596.292969 L 341.378906 535.570312 C 341.378906 529.558594 346.265625 524.675781 352.277344 524.675781 L 457.808594 524.675781 C 463.820312 524.675781 468.707031 529.558594 468.707031 535.570312 L 468.707031 596.292969 C 468.707031 602.292969 463.820312 607.1875 457.808594 607.1875 Z M 352.277344 534.90625 C 351.917969 534.90625 351.609375 535.210938 351.609375 535.570312 L 351.609375 596.292969 C 351.609375 596.640625 351.917969 596.957031 352.277344 596.957031 L 457.808594 596.957031 C 458.167969 596.957031 458.472656 596.640625 458.472656 596.292969 L 458.472656 535.570312 C 458.472656 535.210938 458.167969 534.90625 457.808594 534.90625 Z M 352.277344 534.90625 "/></g><g clip-rule="nonzero" clip-path="url(#64e998638f)"><path style=" stroke:none;fill-rule:evenodd;fill:#ffffff;fill-opacity:1;" d="M 457.808594 915.3125 L 352.277344 915.3125 C 346.265625 915.3125 341.378906 910.429688 341.378906 904.417969 L 341.378906 843.695312 C 341.378906 837.6875 346.265625 832.800781 352.277344 832.800781 L 457.808594 832.800781 C 463.820312 832.800781 468.707031 837.6875 468.707031 843.695312 L 468.707031 904.417969 C 468.707031 910.429688 463.820312 915.3125 457.808594 915.3125 Z M 352.277344 843.03125 C 351.917969 843.03125 351.609375 843.339844 351.609375 843.695312 L 351.609375 904.417969 C 351.609375 904.777344 351.917969 905.082031 352.277344 905.082031 L 457.808594 905.082031 C 458.167969 905.082031 458.472656 904.777344 458.472656 904.417969 L 458.472656 843.695312 C 458.472656 843.339844 458.167969 843.03125 457.808594 843.03125 Z M 352.277344 843.03125 "/></g><path style=" stroke:none;fill-rule:evenodd;fill:#ffffff;fill-opacity:1;" d="M 258.523438 644.652344 C 255.703125 644.652344 253.410156 642.359375 253.410156 639.535156 L 253.410156 565.929688 C 253.410156 563.101562 255.703125 560.816406 258.523438 560.816406 L 315.042969 560.816406 C 317.875 560.816406 320.160156 563.101562 320.160156 565.929688 C 320.160156 568.753906 317.875 571.046875 315.042969 571.046875 L 263.640625 571.046875 L 263.640625 639.535156 C 263.640625 642.359375 261.347656 644.652344 258.523438 644.652344 Z M 258.523438 644.652344 "/><path style=" stroke:none;fill-rule:evenodd;fill:#ffffff;fill-opacity:1;" d="M 299.183594 584.425781 C 297.734375 584.425781 296.285156 583.800781 295.28125 582.609375 C 293.457031 580.441406 293.730469 577.21875 295.886719 575.394531 L 307.113281 565.929688 L 295.894531 556.46875 C 293.730469 554.644531 293.457031 551.410156 295.28125 549.253906 C 297.097656 547.097656 300.328125 546.824219 302.484375 548.640625 L 318.34375 562.019531 C 319.503906 562.988281 320.160156 564.421875 320.160156 565.929688 C 320.160156 567.441406 319.503906 568.863281 318.34375 569.835938 L 302.484375 583.214844 C 301.519531 584.023438 300.351562 584.425781 299.183594 584.425781 Z M 299.183594 584.425781 "/><path style=" stroke:none;fill-rule:evenodd;fill:#ffffff;fill-opacity:1;" d="M 551.558594 644.652344 C 548.738281 644.652344 546.445312 642.359375 546.445312 639.535156 L 546.445312 571.046875 L 495.042969 571.046875 C 492.210938 571.046875 489.925781 568.753906 489.925781 565.929688 C 489.925781 563.101562 492.210938 560.816406 495.042969 560.816406 L 551.558594 560.816406 C 554.382812 560.816406 556.675781 563.101562 556.675781 565.929688 L 556.675781 639.535156 C 556.675781 642.359375 554.382812 644.652344 551.558594 644.652344 Z M 551.558594 644.652344 "/><path style=" stroke:none;fill-rule:evenodd;fill:#ffffff;fill-opacity:1;" d="M 510.890625 584.425781 C 509.730469 584.425781 508.5625 584.023438 507.601562 583.214844 L 491.742188 569.835938 C 490.589844 568.863281 489.925781 567.441406 489.925781 565.929688 C 489.925781 564.421875 490.589844 562.988281 491.742188 562.019531 L 507.601562 548.640625 C 509.757812 546.824219 512.988281 547.097656 514.804688 549.253906 C 516.628906 551.410156 516.355469 554.644531 514.191406 556.460938 L 502.972656 565.929688 L 514.191406 575.394531 C 516.355469 577.21875 516.628906 580.441406 514.804688 582.597656 C 513.800781 583.800781 512.347656 584.425781 510.890625 584.425781 Z M 510.890625 584.425781 "/><path style=" stroke:none;fill-rule:evenodd;fill:#ffffff;fill-opacity:1;" d="M 315.042969 879.171875 L 258.523438 879.171875 C 255.703125 879.171875 253.410156 876.878906 253.410156 874.058594 L 253.410156 800.453125 C 253.410156 797.632812 255.703125 795.335938 258.523438 795.335938 C 261.347656 795.335938 263.640625 797.632812 263.640625 800.453125 L 263.640625 868.941406 L 315.042969 868.941406 C 317.875 868.941406 320.160156 871.234375 320.160156 874.058594 C 320.160156 876.878906 317.875 879.171875 315.042969 879.171875 Z M 315.042969 879.171875 "/><path style=" stroke:none;fill-rule:evenodd;fill:#ffffff;fill-opacity:1;" d="M 299.183594 892.550781 C 297.734375 892.550781 296.285156 891.9375 295.28125 890.734375 C 293.457031 888.578125 293.730469 885.34375 295.886719 883.53125 L 307.113281 874.058594 L 295.894531 864.59375 C 293.730469 862.769531 293.457031 859.546875 295.28125 857.378906 C 297.097656 855.222656 300.328125 854.949219 302.484375 856.765625 L 318.34375 870.144531 C 319.503906 871.117188 320.160156 872.546875 320.160156 874.058594 C 320.160156 875.566406 319.503906 877 318.34375 877.960938 L 302.484375 891.339844 C 301.519531 892.15625 300.351562 892.550781 299.183594 892.550781 Z M 299.183594 892.550781 "/><path style=" stroke:none;fill-rule:evenodd;fill:#ffffff;fill-opacity:1;" d="M 551.558594 879.171875 L 495.042969 879.171875 C 492.210938 879.171875 489.925781 876.878906 489.925781 874.058594 C 489.925781 871.234375 492.210938 868.941406 495.042969 868.941406 L 546.445312 868.941406 L 546.445312 800.453125 C 546.445312 797.632812 548.738281 795.335938 551.558594 795.335938 C 554.382812 795.335938 556.675781 797.632812 556.675781 800.453125 L 556.675781 874.058594 C 556.675781 876.878906 554.382812 879.171875 551.558594 879.171875 Z M 551.558594 879.171875 "/><path style=" stroke:none;fill-rule:evenodd;fill:#ffffff;fill-opacity:1;" d="M 510.890625 892.550781 C 509.730469 892.550781 508.5625 892.15625 507.601562 891.347656 L 491.742188 877.96875 C 490.589844 877 489.925781 875.566406 489.925781 874.058594 C 489.925781 872.546875 490.589844 871.117188 491.742188 870.144531 L 507.601562 856.773438 C 509.757812 854.949219 512.988281 855.222656 514.804688 857.390625 C 516.628906 859.546875 516.355469 862.769531 514.191406 864.59375 L 502.972656 874.058594 L 514.191406 883.53125 C 516.355469 885.34375 516.628906 888.578125 514.804688 890.734375 C 513.800781 891.9375 512.347656 892.550781 510.890625 892.550781 Z M 510.890625 892.550781 "/><g style="fill:#ffffff;fill-opacity:1;"><g transform="translate(348.393819, 742.343983)"><path style="stroke:none" d="M 24.21875 -50.375 L 28.0625 -0.953125 C 28.0625 -0.453125 27.773438 -0.175781 27.203125 -0.125 L 20.34375 0.125 C 19.882812 0.125 19.65625 -0.0820312 19.65625 -0.5 L 19.15625 -11.328125 L 11.71875 -11.03125 L 9.25 -0.921875 C 9.1875 -0.609375 9.097656 -0.394531 8.984375 -0.28125 C 8.878906 -0.175781 8.6875 -0.113281 8.40625 -0.09375 L 1.609375 0.125 C 1.171875 0.125 0.953125 -0.0820312 0.953125 -0.5 L 15.359375 -50.140625 C 15.515625 -50.617188 15.8125 -50.867188 16.25 -50.890625 L 23.46875 -51.15625 C 23.925781 -51.132812 24.175781 -50.875 24.21875 -50.375 Z M 18.015625 -36.84375 L 13.421875 -18.015625 L 18.875 -18.21875 Z M 18.015625 -36.84375 "/></g></g><g style="fill:#ffffff;fill-opacity:1;"><g transform="translate(380.017154, 742.343983)"><path style="stroke:none" d="M 2.890625 0.5 C 2.335938 0.5 2.0625 0.234375 2.0625 -0.296875 L 2.890625 -7.15625 C 2.972656 -7.632812 3.253906 -7.894531 3.734375 -7.9375 C 7.148438 -8.289062 9.40625 -8.832031 10.5 -9.5625 C 11.59375 -10.300781 12.140625 -11.765625 12.140625 -13.953125 C 12.140625 -16.140625 11.582031 -18.988281 10.46875 -22.5 C 9.351562 -26.007812 8.628906 -28.34375 8.296875 -29.5 C 7.253906 -33.21875 6.734375 -36.265625 6.734375 -38.640625 C 6.734375 -41.015625 7.113281 -43.039062 7.875 -44.71875 C 8.644531 -46.40625 9.738281 -47.753906 11.15625 -48.765625 C 13.914062 -50.691406 17.625 -51.65625 22.28125 -51.65625 C 22.875 -51.65625 23.171875 -51.378906 23.171875 -50.828125 L 22.28125 -44.03125 C 22.195312 -43.488281 21.921875 -43.195312 21.453125 -43.15625 C 17.210938 -42.863281 15.09375 -41.601562 15.09375 -39.375 C 15.09375 -37.320312 15.992188 -33.28125 17.796875 -27.25 C 19.609375 -21.226562 20.515625 -16.914062 20.515625 -14.3125 C 20.515625 -4.4375 14.640625 0.5 2.890625 0.5 Z M 2.890625 0.5 "/></g></g><g style="fill:#ffffff;fill-opacity:1;"><g transform="translate(403.439416, 742.343983)"><path style="stroke:none" d="M 2.890625 0.5 C 2.335938 0.5 2.0625 0.234375 2.0625 -0.296875 L 2.890625 -7.15625 C 2.972656 -7.632812 3.253906 -7.894531 3.734375 -7.9375 C 7.148438 -8.289062 9.40625 -8.832031 10.5 -9.5625 C 11.59375 -10.300781 12.140625 -11.765625 12.140625 -13.953125 C 12.140625 -16.140625 11.582031 -18.988281 10.46875 -22.5 C 9.351562 -26.007812 8.628906 -28.34375 8.296875 -29.5 C 7.253906 -33.21875 6.734375 -36.265625 6.734375 -38.640625 C 6.734375 -41.015625 7.113281 -43.039062 7.875 -44.71875 C 8.644531 -46.40625 9.738281 -47.753906 11.15625 -48.765625 C 13.914062 -50.691406 17.625 -51.65625 22.28125 -51.65625 C 22.875 -51.65625 23.171875 -51.378906 23.171875 -50.828125 L 22.28125 -44.03125 C 22.195312 -43.488281 21.921875 -43.195312 21.453125 -43.15625 C 17.210938 -42.863281 15.09375 -41.601562 15.09375 -39.375 C 15.09375 -37.320312 15.992188 -33.28125 17.796875 -27.25 C 19.609375 -21.226562 20.515625 -16.914062 20.515625 -14.3125 C 20.515625 -4.4375 14.640625 0.5 2.890625 0.5 Z M 2.890625 0.5 "/></g></g><g style="fill:#ffffff;fill-opacity:1;"><g transform="translate(426.861678, 742.343983)"><path style="stroke:none" d="M 9.28125 -50.140625 C 9.332031 -50.398438 9.410156 -50.582031 9.515625 -50.6875 C 9.628906 -50.800781 10.734375 -50.957031 12.828125 -51.15625 C 14.929688 -51.351562 17.8125 -51.453125 21.46875 -51.453125 C 25.132812 -51.453125 27.953125 -50.394531 29.921875 -48.28125 C 31.890625 -46.175781 32.875 -43.285156 32.875 -39.609375 C 32.875 -32.671875 32.097656 -24.6875 30.546875 -15.65625 C 29.710938 -10.863281 28.367188 -7.296875 26.515625 -4.953125 C 24.804688 -2.804688 22.132812 -1.394531 18.5 -0.71875 C 16.863281 -0.4375 14.863281 -0.253906 12.5 -0.171875 L 4.328125 0.125 C 3.847656 0.101562 3.609375 -0.101562 3.609375 -0.5 Z M 16.796875 -43.8125 L 12.796875 -8.078125 C 16.054688 -8.359375 18.3125 -8.988281 19.5625 -9.96875 C 20.820312 -10.957031 21.703125 -12.828125 22.203125 -15.578125 C 22.710938 -18.335938 23.210938 -22.101562 23.703125 -26.875 C 24.203125 -31.644531 24.453125 -35.550781 24.453125 -38.59375 C 24.453125 -40.382812 24.015625 -41.71875 23.140625 -42.59375 C 22.265625 -43.46875 21.078125 -43.90625 19.578125 -43.90625 C 18.078125 -43.90625 17.148438 -43.875 16.796875 -43.8125 Z M 16.796875 -43.8125 "/></g></g></g></svg>